Coordinates
version=1
nRows=22
nColumns=24
inDegrees=yes

Units are S.I. units (second, meters, Newtons, ...)
Angles are in degrees.

endheader
time	pelvis_tilt	pelvis_list	pelvis_rotation	pelvis_tx	pelvis_ty	pelvis_tz	hip_flexion_r	hip_adduction_r	hip_rotation_r	knee_angle_r	ankle_angle_r	subtalar_angle_r	mtp_angle_r	hip_flexion_l	hip_adduction_l	hip_rotation_l	knee_angle_l	ankle_angle_l	subtalar_angle_l	mtp_angle_l	lumbar_extension	lumbar_bending	lumbar_rotation
      1.23216667	      9.07289200	      4.43276478	     -1.12079690	      0.18747918	      1.02823082	      0.25786689	      2.95454220	     -8.10193796	     -7.50208685	    -64.92994087	    -10.75862063	    -16.79969897	     -3.20456659	     -2.94296802	      9.51342184	      9.60826663	    -12.66420554	      3.94892712	    -16.76851120	     -6.15115935	    -24.48975890	      2.07041223	     -2.25041191
      1.23633333	      9.04112715	      4.16786377	     -1.27931732	      0.19251274	      1.02908595	      0.25782379	      3.53411732	     -7.76342690	     -7.36313758	    -64.60157591	     -9.86142242	    -16.86446640	     -3.23110270	     -3.42432754	      9.23006977	      9.50530126	    -12.25165909	      3.97439296	    -16.80105114	     -6.17446768	    -24.46350129	      2.38261234	     -2.29668226
      1.24050000	      9.05647620	      3.93183515	     -1.45520829	      0.19756819	      1.02997809	      0.25776804	      4.04717919	     -7.46574231	     -7.21397107	    -64.21198050	     -8.91038146	    -16.65791775	     -3.30433207	     -3.99115594	      8.98377561	      9.43318752	    -11.76596331	      3.98317606	    -16.83669496	     -6.22809547	    -24.48601084	      2.69572314	     -2.38738344
      1.24466667	      9.02168504	      3.66373013	     -1.60337360	      0.20259244	      1.03079129	      0.25773070	      4.59002928	     -7.10435632	     -7.07693730	    -63.73960968	     -8.03454157	    -16.69714861	     -3.33024210	     -4.47342147	      8.69876962	      9.32500975	    -11.34704949	      3.99430689	    -16.86194406	     -6.25652440	    -24.46438573	      3.02442686	     -2.43021875
      1.24883333	      9.01910020	      3.40629022	     -1.75912725	      0.20765295	      1.03161770	      0.25766858	      5.07679585	     -6.76409265	     -6.94176271	    -63.20083228	     -7.13592135	    -16.49598030	     -3.39559119	     -5.02271681	      8.43092751	      9.24730533	    -10.86521750	      4.01278634	    -16.88510266	     -6.31497018	    -24.45849092	      3.36525656	     -2.51490532
      1.25300000	      9.02593527	      3.14957922	     -1.89738654	      0.21267339	      1.03243301	      0.25762579	      5.53066583	     -6.40827727	     -6.81360687	    -62.59324915	     -6.23433533	    -16.40990750	     -3.49576049	     -5.57231775	      8.16141324	      9.17088494	    -10.40080922	      4.00454135	    -16.91232934	     -6.40220374	    -24.49595738	      3.68620670	     -2.59846933
      1.25716667	      8.96648083	      2.87875020	     -2.03467919	      0.21770049	      1.03312909	      0.25760490	      6.04139078	     -6.01774445	     -6.66889525	    -61.91975060	     -5.42511257	    -16.41134559	     -3.52011316	     -6.03142719	      7.87557199	      9.04686674	     -9.97856478	      4.01522555	    -16.91912131	     -6.43537371	    -24.44513945	      4.02673919	     -2.63031243
      1.26133333	      8.97917300	      2.62006398	     -2.16845744	      0.22274285	      1.03389109	      0.25756792	      6.44534032	     -5.65193738	     -6.54017342	    -61.17572858	     -4.57947863	    -16.20953317	     -3.59582443	     -6.59573440	      7.60580209	      8.95106817	     -9.50180793	      4.03117661	    -16.91469672	     -6.51460109	    -24.46451561	      4.34701683	     -2.71905366
      1.26550000	      8.93304403	      2.34388350	     -2.28795849	      0.22778234	      1.03455195	      0.25754473	      6.89030554	     -5.24552649	     -6.40464315	    -60.36218015	     -3.79705391	    -16.13656634	     -3.64949137	     -7.07404726	      7.31474797	      8.82922012	     -9.07465691	      4.04205978	    -16.91389354	     -6.57674276	    -24.41896238	      4.68254434	     -2.77412952
      1.26966667	      8.90215382	      2.09223288	     -2.41025057	      0.23281297	      1.03517147	      0.25752269	      7.30809674	     -4.86820214	     -6.26738192	    -59.50747158	     -3.02801083	    -16.01608409	     -3.71752945	     -7.57925049	      7.05243352	      8.72155797	     -8.62388318	      4.06247470	    -16.88939352	     -6.65475672	    -24.40907272	      5.01231491	     -2.84733011
      1.27383333	      8.84440116	      1.83222789	     -2.51819933	      0.23782995	      1.03573077	      0.25751008	      7.73051494	     -4.46686529	     -6.12605673	    -58.58367756	     -2.29942342	    -15.96021770	     -3.75293391	     -8.03193678	      6.77952295	      8.58554678	     -8.22238145	      4.07021442	    -16.87468346	     -6.70423911	    -24.36007955	      5.32738233	     -2.89548950
      1.27800000	      8.80110793	      1.57248165	     -2.62415589	      0.24286357	      1.03627002	      0.25749591	      8.11455805	     -4.06678653	     -5.98716323	    -57.59965184	     -1.61064021	    -15.85285029	     -3.79163572	     -8.51124556	      6.50807687	      8.45721595	     -7.80101653	      4.09177048	    -16.84049749	     -6.75835104	    -24.33025684	      5.65483122	     -2.95725570
      1.28216667	      8.75767416	      1.32653178	     -2.72717599	      0.24788856	      1.03674188	      0.25748237	      8.48444656	     -3.67964167	     -5.84508940	    -56.57103964	     -0.95812048	    -15.74731774	     -3.83282892	     -8.98673518	      6.25290445	      8.32893087	     -7.38635898	      4.12044257	    -16.79848064	     -6.81574327	    -24.29965811	      5.96838072	     -3.02577717
      1.28633333	      8.70456449	      1.08479475	     -2.82006092	      0.25291554	      1.03716709	      0.25745793	      8.84388453	     -3.29463411	     -5.70404862	    -55.48873160	     -0.35326143	    -15.64812564	     -3.87013816	     -9.44639447	      6.00207932	      8.20010408	     -6.98309123	      4.14937736	    -16.75288328	     -6.87007870	    -24.26146653	      6.27798598	     -3.09167738
      1.29050000	      8.70247766	      0.85963183	     -2.91773768	      0.25794945	      1.03759266	      0.25744568	      9.13176392	     -2.93395263	     -5.56581618	    -54.36042900	      0.19849400	    -15.52057197	     -3.93851430	     -9.97715273	      5.77221278	      8.07664993	     -6.54666362	      4.19767957	    -16.67838014	     -6.95924649	    -24.27994168	      6.57836345	     -3.19494102
      1.29466667	      8.60852397	      0.65008083	     -3.00210536	      0.26296663	      1.03784674	      0.25744135	      9.50725597	     -2.57397085	     -5.41037427	    -53.19610508	      0.72785623	    -15.44439189	     -3.97276834	    -10.37096917	      5.55592324	      7.94091435	     -6.18742025	      4.21832565	    -16.63956974	     -7.01213167	    -24.19563658	      6.84317662	     -3.24947396
      1.29883333	      8.60760077	      0.44269797	     -3.08324059	      0.26799643	      1.03817303	      0.25742392	      9.75590741	     -2.22885149	     -5.26892457	    -51.97113274	      1.17508960	    -15.34250765	     -4.05149736	    -10.89036407	      5.34563626	      7.81900499	     -5.77817410	      4.27342656	    -16.54823216	     -7.11828255	    -24.21724378	      7.12378485	     -3.36841417
      1.30300000	      8.52182318	      0.24752846	     -3.15636800	      0.27302163	      1.03833937	      0.25741111	     10.08436753	     -1.88728061	     -5.11757282	    -50.71223361	      1.60693864	    -15.25547412	     -4.08451807	    -11.28848641	      5.14616038	      7.68201442	     -5.42835812	      4.29846274	    -16.50610157	     -7.17164803	    -24.13307527	      7.38323034	     -3.42210882
      1.30716667	      8.47539921	      0.06252285	     -3.22418279	      0.27805774	      1.03850469	      0.25738610	     10.34886629	     -1.56372194	     -4.97243334	    -49.40614672	      1.97209948	    -15.16326263	     -4.12158832	    -11.73710206	      4.95997013	      7.55243430	     -5.06377840	      4.33529580	    -16.44003029	     -7.23043878	    -24.09873844	      7.63355947	     -3.51071730
      1.31133333	      8.47398167	     -0.10703599	     -3.29062113	      0.28309023	      1.03865491	      0.25736860	     10.54983563	     -1.26417424	     -4.83449656	    -48.06304584	      2.26131223	    -15.09640922	     -4.18660044	    -12.24784623	      4.79172883	      7.43785242	     -4.66894140	      4.40170480	    -16.34214645	     -7.32736065	    -24.11744331	      7.86897607	     -3.64829185
      1.31550000	      8.43928027	     -0.26458420	     -3.34942716	      0.28812590	      1.03872188	      0.25734460	     10.76944564	     -0.97527060	     -4.69265559	    -46.68175149	      2.53803044	    -15.02078927	     -4.25005155	    -12.70458044	      4.63639760	      7.31992900	     -4.31178786	      4.44352288	    -16.26704552	     -7.42735665	    -24.09723208	      8.08853686	     -3.75806562
      1.31966667	      8.35418850	     -0.38989590	     -3.40354844	      0.29316360	      1.03866307	      0.25732268	     11.03357189	     -0.71847958	     -4.53970753	    -45.27798570	      2.79852798	    -14.92592868	     -4.28683464	    -13.09035359	      4.51428696	      7.20875006	     -3.98574897	      4.47251065	    -16.21065892	     -7.49092384	    -23.99783001	      8.28689448	     -3.83875095
